<svg width="149" height="204" viewBox="0 0 149 204" fill="none" xmlns="http://www.w3.org/2000/svg">
<path d="M11.7955 151.909C11.6989 150.937 11.2699 150.165 10.5085 149.591C9.74716 149.017 8.78977 148.73 7.63636 148.73C6.82386 148.73 6.10795 148.869 5.48864 149.148C4.875 149.426 4.39205 149.812 4.03977 150.307C3.69318 150.795 3.51989 151.352 3.51989 151.977C3.51989 152.438 3.61932 152.841 3.81818 153.188C4.01705 153.534 4.28409 153.832 4.61932 154.082C4.96023 154.327 5.33523 154.537 5.74432 154.713C6.15909 154.889 6.5767 155.037 6.99716 155.156L8.83807 155.685C9.39489 155.838 9.9517 156.034 10.5085 156.273C11.0653 156.511 11.5739 156.812 12.0341 157.176C12.5 157.534 12.8722 157.974 13.1506 158.497C13.4347 159.014 13.5767 159.636 13.5767 160.364C13.5767 161.295 13.3352 162.134 12.8523 162.878C12.3693 163.622 11.6761 164.213 10.7727 164.651C9.86932 165.082 8.78693 165.298 7.52557 165.298C6.33807 165.298 5.30682 165.102 4.43182 164.71C3.55682 164.312 2.86932 163.764 2.36932 163.065C1.86932 162.366 1.58807 161.557 1.52557 160.636H3.16193C3.21875 161.324 3.44602 161.906 3.84375 162.384C4.24148 162.861 4.75852 163.224 5.39489 163.474C6.03125 163.719 6.74148 163.841 7.52557 163.841C8.39489 163.841 9.16761 163.696 9.84375 163.406C10.5256 163.111 11.0597 162.702 11.446 162.179C11.8381 161.651 12.0341 161.037 12.0341 160.338C12.0341 159.747 11.8807 159.253 11.5739 158.855C11.267 158.452 10.8381 158.114 10.2869 157.841C9.74148 157.568 9.10795 157.327 8.38636 157.116L6.2983 156.503C4.92898 156.094 3.86648 155.528 3.1108 154.807C2.35511 154.085 1.97727 153.165 1.97727 152.045C1.97727 151.108 2.22727 150.284 2.72727 149.574C3.23295 148.858 3.91477 148.301 4.77273 147.903C5.63636 147.5 6.60511 147.298 7.67898 147.298C8.7642 147.298 9.72443 147.497 10.5597 147.895C11.3949 148.293 12.0568 148.841 12.5455 149.54C13.0398 150.233 13.304 151.023 13.3381 151.909H11.7955ZM30.3975 165H28.727L35.0765 147.545H36.781L43.1305 165H41.46L35.9884 149.616H35.8691L30.3975 165ZM31.5992 158.31H40.2583V159.741H31.5992V158.31ZM60.6757 147.545V165H59.0819V147.545H60.6757ZM103.1 165H97.9863V147.545H103.407C105.072 147.545 106.495 147.892 107.677 148.585C108.864 149.278 109.773 150.273 110.404 151.568C111.035 152.864 111.35 154.418 111.35 156.23C111.35 158.06 111.026 159.631 110.378 160.943C109.736 162.25 108.799 163.253 107.566 163.952C106.339 164.651 104.85 165 103.1 165ZM99.5801 163.568H103.006C104.506 163.568 105.762 163.273 106.773 162.682C107.785 162.091 108.543 161.247 109.049 160.151C109.554 159.054 109.807 157.747 109.807 156.23C109.802 154.724 109.552 153.429 109.057 152.344C108.569 151.259 107.841 150.426 106.876 149.847C105.915 149.267 104.728 148.977 103.313 148.977H99.5801V163.568ZM142.483 156.273C142.483 158.091 142.159 159.673 141.511 161.02C140.863 162.361 139.971 163.401 138.835 164.139C137.704 164.872 136.403 165.239 134.931 165.239C133.46 165.239 132.156 164.872 131.019 164.139C129.889 163.401 129 162.361 128.352 161.02C127.71 159.673 127.389 158.091 127.389 156.273C127.389 154.455 127.71 152.875 128.352 151.534C129 150.187 129.892 149.148 131.028 148.415C132.164 147.676 133.465 147.307 134.931 147.307C136.403 147.307 137.704 147.676 138.835 148.415C139.971 149.148 140.863 150.187 141.511 151.534C142.159 152.875 142.483 154.455 142.483 156.273ZM140.931 156.273C140.931 154.71 140.67 153.372 140.147 152.259C139.625 151.139 138.912 150.284 138.008 149.693C137.105 149.102 136.079 148.807 134.931 148.807C133.789 148.807 132.767 149.102 131.863 149.693C130.96 150.284 130.244 151.136 129.715 152.25C129.193 153.364 128.931 154.705 128.931 156.273C128.931 157.835 129.193 159.173 129.715 160.287C130.238 161.401 130.951 162.256 131.855 162.852C132.758 163.443 133.784 163.739 134.931 163.739C136.079 163.739 137.105 163.443 138.008 162.852C138.917 162.261 139.633 161.409 140.156 160.295C140.679 159.176 140.937 157.835 140.931 156.273ZM7.64489 199H0.84375L9.67756 172.818H18.1023L26.9361 199H20.1349L13.9858 179.415H13.7812L7.64489 199ZM6.73722 188.696H20.9531V193.503H6.73722V188.696ZM29.755 199V172.818H40.5703C42.5305 172.818 44.2223 173.202 45.6456 173.969C47.0774 174.727 48.1811 175.788 48.9567 177.152C49.7322 178.507 50.12 180.084 50.12 181.882C50.12 183.689 49.7237 185.27 48.9311 186.625C48.147 187.972 47.0263 189.016 45.5689 189.757C44.1115 190.499 42.3814 190.869 40.3786 190.869H33.7053V185.884H39.2024C40.157 185.884 40.9538 185.717 41.593 185.385C42.2408 185.053 42.7308 184.588 43.0632 183.991C43.3956 183.386 43.5618 182.683 43.5618 181.882C43.5618 181.072 43.3956 180.374 43.0632 179.786C42.7308 179.189 42.2408 178.729 41.593 178.405C40.9453 178.081 40.1484 177.919 39.2024 177.919H36.0831V199H29.755ZM53.2393 199V172.818H71.495V177.957H59.5675V183.327H70.5618V188.479H59.5675V193.861H71.495V199H53.2393ZM75.4581 199V172.818H86.2734C88.2337 172.818 89.9254 173.172 91.3487 173.879C92.7805 174.578 93.8842 175.584 94.6598 176.896C95.4354 178.2 95.8232 179.747 95.8232 181.537C95.8232 183.352 95.4268 184.895 94.6342 186.165C93.8416 187.426 92.7166 188.389 91.2592 189.054C89.8018 189.71 88.076 190.038 86.0817 190.038H79.2422V185.053H84.9055C85.8601 185.053 86.657 184.929 87.2962 184.682C87.9439 184.426 88.4339 184.043 88.7663 183.531C89.0987 183.011 89.2649 182.347 89.2649 181.537C89.2649 180.727 89.0987 180.058 88.7663 179.53C88.4339 178.993 87.9439 178.592 87.2962 178.328C86.6484 178.055 85.8516 177.919 84.9055 177.919H81.7862V199H75.4581ZM90.1982 187.034L96.718 199H89.8146L83.4226 187.034H90.1982ZM98.4375 177.957V172.818H120.567V177.957H112.628V199H106.389V177.957H98.4375ZM147.174 185.909C147.174 188.79 146.62 191.232 145.512 193.234C144.404 195.237 142.904 196.759 141.012 197.798C139.128 198.838 137.015 199.358 134.671 199.358C132.319 199.358 130.201 198.834 128.317 197.786C126.434 196.737 124.938 195.216 123.83 193.222C122.73 191.219 122.181 188.781 122.181 185.909C122.181 183.028 122.73 180.587 123.83 178.584C124.938 176.581 126.434 175.06 128.317 174.02C130.201 172.98 132.319 172.46 134.671 172.46C137.015 172.46 139.128 172.98 141.012 174.02C142.904 175.06 144.404 176.581 145.512 178.584C146.62 180.587 147.174 183.028 147.174 185.909ZM140.705 185.909C140.705 184.205 140.462 182.764 139.976 181.588C139.499 180.412 138.809 179.521 137.905 178.916C137.01 178.311 135.932 178.009 134.671 178.009C133.418 178.009 132.34 178.311 131.436 178.916C130.533 179.521 129.838 180.412 129.353 181.588C128.875 182.764 128.637 184.205 128.637 185.909C128.637 187.614 128.875 189.054 129.353 190.23C129.838 191.406 130.533 192.297 131.436 192.902C132.34 193.507 133.418 193.81 134.671 193.81C135.932 193.81 137.01 193.507 137.905 192.902C138.809 192.297 139.499 191.406 139.976 190.23C140.462 189.054 140.705 187.614 140.705 185.909Z" fill="white"/>
<g clip-path="url(#clip0_29_6)">
<path d="M52.8982 46.4736C51.9768 43.9928 49.4869 42.5912 46.9553 42.5912C45.6917 42.5912 45.575 42.6236 44.8225 42.6236H24.3499C23.5971 42.6236 22.9281 42.6236 22.216 42.6236C19.325 42.6236 17.1956 43.9924 16.2743 46.4736L5.34308 79.7163C4.30165 82.5212 5.70903 85.6481 8.48605 86.6999C11.2634 87.752 14.3592 86.3305 15.401 83.526L18.3072 75.7012C18.3072 75.7012 18.5146 74.9121 18.5146 78.357V124.497C18.5146 128.531 21.7525 131.8 25.747 131.8C29.7416 131.8 32.9795 128.531 32.9795 124.497V94.3535C32.9795 94.3535 32.9444 94.0871 33.225 94.0871C33.9035 94.0871 35.2617 94.0871 35.9406 94.0871C36.2086 94.0871 36.1937 94.3535 36.1937 94.3535V124.497C36.1937 128.531 39.4316 131.8 43.4262 131.8C47.4208 131.8 50.6587 128.531 50.6587 124.497V78.357C50.6587 74.8568 50.9625 75.9596 50.9625 75.9596L53.7727 83.5268C54.8137 86.3316 57.9102 87.7527 60.6876 86.7006C63.4646 85.6481 64.8724 82.5219 63.8305 79.7175L52.8982 46.4736Z" fill="white"/>
<path d="M34.7299 38.9362C43.3061 38.9362 50.2584 32.0554 50.2584 23.5675C50.2584 15.0796 43.3061 8.19878 34.7299 8.19878C26.1538 8.19878 19.2015 15.0796 19.2015 23.5675C19.2015 32.0554 26.1538 38.9362 34.7299 38.9362Z" fill="white"/>
<path d="M113.954 39.0098C122.53 39.0098 129.483 32.0575 129.483 23.4814C129.483 14.9052 122.53 7.95291 113.954 7.95291C105.378 7.95291 98.4257 14.9052 98.4257 23.4814C98.4257 32.0575 105.378 39.0098 113.954 39.0098Z" fill="white"/>
<path d="M144.488 78.981L131.238 46.7062C130.481 45.0777 129.81 42.8954 126.697 42.8954C125.547 42.8954 124.407 42.8954 123.09 42.8954H106.875C105.533 42.8954 104.835 42.8954 103.182 42.8954C100.077 42.8954 98.4566 44.9187 97.568 46.7413L83.8057 78.7721C82.4951 81.4615 83.5899 84.7104 86.2495 86.0297C88.911 87.3487 92.1314 86.2382 93.4419 83.5481L94.4777 81.4245C94.4777 81.4245 94.7994 80.8515 94.6785 81.4851C93.9295 85.4297 91.8611 97.2952 91.8611 97.2952C91.3587 99.7643 93.0081 101.785 95.5279 101.785C95.5279 101.785 100.023 101.785 101.521 101.785C101.95 101.785 101.874 102.108 101.874 102.108V125.958C101.874 129.952 104.361 132.047 107.431 132.047C110.501 132.047 112.99 129.952 112.99 125.958V102.013C112.99 102.013 112.977 101.776 113.227 101.785C113.55 101.795 114.367 101.786 114.734 101.786C114.943 101.786 114.916 102.038 114.916 102.038V125.958C114.916 129.952 117.406 132.047 120.476 132.047C123.545 132.047 126.034 129.952 126.034 125.958V102.172C126.034 102.172 125.997 101.785 126.457 101.785C128.07 101.785 132.904 101.785 132.904 101.785C135.424 101.785 137.114 99.7566 136.659 97.2781C136.659 97.2781 134.586 84.5518 134.034 81.0848C133.876 80.0911 135.527 83.6198 135.527 83.6198C136.789 86.332 139.228 87.4646 141.912 86.194C144.598 84.9231 145.751 81.6944 144.488 78.981Z" fill="white"/>
<path d="M77.5963 129.132C77.5963 130.6 76.3959 131.8 74.9279 131.8H73.7844C72.3167 131.8 71.116 130.6 71.116 129.132V12.2414C71.116 10.7738 72.3167 9.573 73.7844 9.573H74.9279C76.3956 9.573 77.5963 10.7738 77.5963 12.2414V129.132Z" fill="white"/>
</g>
<defs>
<clipPath id="clip0_29_6">
<rect width="140" height="140" fill="white" transform="translate(5)"/>
</clipPath>
</defs>
</svg>
